<svg width="200" height="200" xmlns="http://www.w3.org/2000/svg">
  <defs>
    <!-- Gradient for diyas -->
    <radialGradient id="diyaGlow" cx="50%" cy="50%" r="50%">
      <stop offset="0%" style="stop-color:#FFD700;stop-opacity:0.8"/>
      <stop offset="70%" style="stop-color:#FF6B35;stop-opacity:0.6"/>
      <stop offset="100%" style="stop-color:#8B0000;stop-opacity:0.3"/>
    </radialGradient>
    
    <!-- Gradient for rangoli -->
    <radialGradient id="rangoliGrad" cx="50%" cy="50%" r="50%">
      <stop offset="0%" style="stop-color:#FF1493;stop-opacity:0.4"/>
      <stop offset="50%" style="stop-color:#FFD700;stop-opacity:0.3"/>
      <stop offset="100%" style="stop-color:#FF4500;stop-opacity:0.2"/>
    </radialGradient>
    
    <!-- Sparkle gradient -->
    <radialGradient id="sparkle" cx="50%" cy="50%" r="50%">
      <stop offset="0%" style="stop-color:#FFFFFF;stop-opacity:0.8"/>
      <stop offset="100%" style="stop-color:#FFD700;stop-opacity:0.2"/>
    </radialGradient>
  </defs>
  
  <!-- Background -->
  <rect width="200" height="200" fill="#8B0000" opacity="0.1"/>
  
  <!-- Central Rangoli Pattern -->
  <g transform="translate(100,100)">
    <!-- Outer petals -->
    <g fill="url(#rangoliGrad)">
      <ellipse cx="0" cy="-40" rx="8" ry="20" transform="rotate(0)"/>
      <ellipse cx="0" cy="-40" rx="8" ry="20" transform="rotate(45)"/>
      <ellipse cx="0" cy="-40" rx="8" ry="20" transform="rotate(90)"/>
      <ellipse cx="0" cy="-40" rx="8" ry="20" transform="rotate(135)"/>
      <ellipse cx="0" cy="-40" rx="8" ry="20" transform="rotate(180)"/>
      <ellipse cx="0" cy="-40" rx="8" ry="20" transform="rotate(225)"/>
      <ellipse cx="0" cy="-40" rx="8" ry="20" transform="rotate(270)"/>
      <ellipse cx="0" cy="-40" rx="8" ry="20" transform="rotate(315)"/>
    </g>
    
    <!-- Inner circle -->
    <circle cx="0" cy="0" r="15" fill="url(#rangoliGrad)"/>
    <circle cx="0" cy="0" r="8" fill="#FFD700" opacity="0.6"/>
  </g>
  
  <!-- Diyas in corners -->
  <!-- Top-left diya -->
  <g transform="translate(30,30)">
    <ellipse cx="0" cy="5" rx="12" ry="6" fill="#8B4513" opacity="0.7"/>
    <ellipse cx="0" cy="3" rx="10" ry="4" fill="#D2691E" opacity="0.8"/>
    <ellipse cx="0" cy="0" rx="3" ry="8" fill="url(#diyaGlow)"/>
  </g>
  
  <!-- Top-right diya -->
  <g transform="translate(170,30)">
    <ellipse cx="0" cy="5" rx="12" ry="6" fill="#8B4513" opacity="0.7"/>
    <ellipse cx="0" cy="3" rx="10" ry="4" fill="#D2691E" opacity="0.8"/>
    <ellipse cx="0" cy="0" rx="3" ry="8" fill="url(#diyaGlow)"/>
  </g>
  
  <!-- Bottom-left diya -->
  <g transform="translate(30,170)">
    <ellipse cx="0" cy="5" rx="12" ry="6" fill="#8B4513" opacity="0.7"/>
    <ellipse cx="0" cy="3" rx="10" ry="4" fill="#D2691E" opacity="0.8"/>
    <ellipse cx="0" cy="0" rx="3" ry="8" fill="url(#diyaGlow)"/>
  </g>
  
  <!-- Bottom-right diya -->
  <g transform="translate(170,170)">
    <ellipse cx="0" cy="5" rx="12" ry="6" fill="#8B4513" opacity="0.7"/>
    <ellipse cx="0" cy="3" rx="10" ry="4" fill="#D2691E" opacity="0.8"/>
    <ellipse cx="0" cy="0" rx="3" ry="8" fill="url(#diyaGlow)"/>
  </g>
  
  <!-- Sparkles/Fireworks -->
  <circle cx="60" cy="60" r="2" fill="url(#sparkle)"/>
  <circle cx="140" cy="60" r="1.5" fill="url(#sparkle)"/>
  <circle cx="60" cy="140" r="1.5" fill="url(#sparkle)"/>
  <circle cx="140" cy="140" r="2" fill="url(#sparkle)"/>
  <circle cx="100" cy="40" r="1" fill="url(#sparkle)"/>
  <circle cx="100" cy="160" r="1" fill="url(#sparkle)"/>
  <circle cx="40" cy="100" r="1" fill="url(#sparkle)"/>
  <circle cx="160" cy="100" r="1" fill="url(#sparkle)"/>
  
  <!-- Small decorative dots -->
  <circle cx="80" cy="80" r="1" fill="#FFD700" opacity="0.5"/>
  <circle cx="120" cy="80" r="1" fill="#FF6B35" opacity="0.5"/>
  <circle cx="80" cy="120" r="1" fill="#FF1493" opacity="0.5"/>
  <circle cx="120" cy="120" r="1" fill="#FFD700" opacity="0.5"/>
</svg>