<svg width="200" height="200" xmlns="http://www.w3.org/2000/svg">
  <defs>
    <pattern id="mandalaPattern" x="0" y="0" width="200" height="200" patternUnits="userSpaceOnUse">
      <!-- Background -->
      <rect width="200" height="200" fill="#D4A574"/>
      
      <!-- Central Mandala -->
      <g transform="translate(100,100)">
        <!-- Outer ring -->
        <circle cx="0" cy="0" r="80" fill="none" stroke="#B8860B" stroke-width="2" opacity="0.6"/>
        
        <!-- Petal pattern outer -->
        <g opacity="0.7">
          <path d="M 0,-70 Q 15,-85 30,-70 Q 15,-55 0,-70" fill="#B8860B" transform="rotate(0)"/>
          <path d="M 0,-70 Q 15,-85 30,-70 Q 15,-55 0,-70" fill="#B8860B" transform="rotate(30)"/>
          <path d="M 0,-70 Q 15,-85 30,-70 Q 15,-55 0,-70" fill="#B8860B" transform="rotate(60)"/>
          <path d="M 0,-70 Q 15,-85 30,-70 Q 15,-55 0,-70" fill="#B8860B" transform="rotate(90)"/>
          <path d="M 0,-70 Q 15,-85 30,-70 Q 15,-55 0,-70" fill="#B8860B" transform="rotate(120)"/>
          <path d="M 0,-70 Q 15,-85 30,-70 Q 15,-55 0,-70" fill="#B8860B" transform="rotate(150)"/>
          <path d="M 0,-70 Q 15,-85 30,-70 Q 15,-55 0,-70" fill="#B8860B" transform="rotate(180)"/>
          <path d="M 0,-70 Q 15,-85 30,-70 Q 15,-55 0,-70" fill="#B8860B" transform="rotate(210)"/>
          <path d="M 0,-70 Q 15,-85 30,-70 Q 15,-55 0,-70" fill="#B8860B" transform="rotate(240)"/>
          <path d="M 0,-70 Q 15,-85 30,-70 Q 15,-55 0,-70" fill="#B8860B" transform="rotate(270)"/>
          <path d="M 0,-70 Q 15,-85 30,-70 Q 15,-55 0,-70" fill="#B8860B" transform="rotate(300)"/>
          <path d="M 0,-70 Q 15,-85 30,-70 Q 15,-55 0,-70" fill="#B8860B" transform="rotate(330)"/>
        </g>
        
        <!-- Middle ring -->
        <circle cx="0" cy="0" r="50" fill="none" stroke="#B8860B" stroke-width="1.5" opacity="0.5"/>
        
        <!-- Inner petals -->
        <g opacity="0.8">
          <path d="M 0,-40 Q 8,-50 16,-40 Q 8,-30 0,-40" fill="#DAA520" transform="rotate(0)"/>
          <path d="M 0,-40 Q 8,-50 16,-40 Q 8,-30 0,-40" fill="#DAA520" transform="rotate(45)"/>
          <path d="M 0,-40 Q 8,-50 16,-40 Q 8,-30 0,-40" fill="#DAA520" transform="rotate(90)"/>
          <path d="M 0,-40 Q 8,-50 16,-40 Q 8,-30 0,-40" fill="#DAA520" transform="rotate(135)"/>
          <path d="M 0,-40 Q 8,-50 16,-40 Q 8,-30 0,-40" fill="#DAA520" transform="rotate(180)"/>
          <path d="M 0,-40 Q 8,-50 16,-40 Q 8,-30 0,-40" fill="#DAA520" transform="rotate(225)"/>
          <path d="M 0,-40 Q 8,-50 16,-40 Q 8,-30 0,-40" fill="#DAA520" transform="rotate(270)"/>
          <path d="M 0,-40 Q 8,-50 16,-40 Q 8,-30 0,-40" fill="#DAA520" transform="rotate(315)"/>
        </g>
        
        <!-- Center circle -->
        <circle cx="0" cy="0" r="20" fill="#B8860B" opacity="0.6"/>
        <circle cx="0" cy="0" r="15" fill="none" stroke="#DAA520" stroke-width="2"/>
        <circle cx="0" cy="0" r="8" fill="#DAA520" opacity="0.8"/>
        
        <!-- Center dot -->
        <circle cx="0" cy="0" r="3" fill="#B8860B"/>
      </g>
      
      <!-- Corner mandalas (smaller) -->
      <g transform="translate(0,0) scale(0.3)" opacity="0.4">
        <circle cx="0" cy="0" r="50" fill="none" stroke="#B8860B" stroke-width="2"/>
        <path d="M 0,-40 Q 8,-50 16,-40 Q 8,-30 0,-40" fill="#DAA520" transform="rotate(0)"/>
        <path d="M 0,-40 Q 8,-50 16,-40 Q 8,-30 0,-40" fill="#DAA520" transform="rotate(90)"/>
        <path d="M 0,-40 Q 8,-50 16,-40 Q 8,-30 0,-40" fill="#DAA520" transform="rotate(180)"/>
        <path d="M 0,-40 Q 8,-50 16,-40 Q 8,-30 0,-40" fill="#DAA520" transform="rotate(270)"/>
        <circle cx="0" cy="0" r="15" fill="#B8860B" opacity="0.6"/>
      </g>
      
      <g transform="translate(200,0) scale(0.3)" opacity="0.4">
        <circle cx="0" cy="0" r="50" fill="none" stroke="#B8860B" stroke-width="2"/>
        <path d="M 0,-40 Q 8,-50 16,-40 Q 8,-30 0,-40" fill="#DAA520" transform="rotate(0)"/>
        <path d="M 0,-40 Q 8,-50 16,-40 Q 8,-30 0,-40" fill="#DAA520" transform="rotate(90)"/>
        <path d="M 0,-40 Q 8,-50 16,-40 Q 8,-30 0,-40" fill="#DAA520" transform="rotate(180)"/>
        <path d="M 0,-40 Q 8,-50 16,-40 Q 8,-30 0,-40" fill="#DAA520" transform="rotate(270)"/>
        <circle cx="0" cy="0" r="15" fill="#B8860B" opacity="0.6"/>
      </g>
      
      <g transform="translate(0,200) scale(0.3)" opacity="0.4">
        <circle cx="0" cy="0" r="50" fill="none" stroke="#B8860B" stroke-width="2"/>
        <path d="M 0,-40 Q 8,-50 16,-40 Q 8,-30 0,-40" fill="#DAA520" transform="rotate(0)"/>
        <path d="M 0,-40 Q 8,-50 16,-40 Q 8,-30 0,-40" fill="#DAA520" transform="rotate(90)"/>
        <path d="M 0,-40 Q 8,-50 16,-40 Q 8,-30 0,-40" fill="#DAA520" transform="rotate(180)"/>
        <path d="M 0,-40 Q 8,-50 16,-40 Q 8,-30 0,-40" fill="#DAA520" transform="rotate(270)"/>
        <circle cx="0" cy="0" r="15" fill="#B8860B" opacity="0.6"/>
      </g>
      
      <g transform="translate(200,200) scale(0.3)" opacity="0.4">
        <circle cx="0" cy="0" r="50" fill="none" stroke="#B8860B" stroke-width="2"/>
        <path d="M 0,-40 Q 8,-50 16,-40 Q 8,-30 0,-40" fill="#DAA520" transform="rotate(0)"/>
        <path d="M 0,-40 Q 8,-50 16,-40 Q 8,-30 0,-40" fill="#DAA520" transform="rotate(90)"/>
        <path d="M 0,-40 Q 8,-50 16,-40 Q 8,-30 0,-40" fill="#DAA520" transform="rotate(180)"/>
        <path d="M 0,-40 Q 8,-50 16,-40 Q 8,-30 0,-40" fill="#DAA520" transform="rotate(270)"/>
        <circle cx="0" cy="0" r="15" fill="#B8860B" opacity="0.6"/>
      </g>
    </pattern>
  </defs>
  
  <rect width="100%" height="100%" fill="url(#mandalaPattern)"/>
</svg>